<svg width="192" height="192" viewBox="0 0 192 192" fill="none" xmlns="http://www.w3.org/2000/svg">
<rect width="192" height="192" rx="50" fill="#2563EB"/>
<rect x="50" y="50" width="90" height="90" rx="10" stroke="white" stroke-width="10"/>
<path d="M71.8718 86.146C69.9192 84.1934 66.7534 84.1934 64.8008 86.146C62.8481 88.0986 62.8481 91.2644 64.8008 93.2171L68.3363 89.6815L71.8718 86.146ZM68.3363 89.6815L64.8008 93.2171L90.8008 119.217L94.3363 115.682L97.8718 112.146L71.8718 86.146L68.3363 89.6815Z" fill="white"/>
<path d="M158.536 52.5355C160.488 50.5829 160.488 47.4171 158.536 45.4645C156.583 43.5118 153.417 43.5118 151.464 45.4645L155 49L158.536 52.5355ZM88 116L91.5355 119.536L158.536 52.5355L155 49L151.464 45.4645L84.4645 112.464L88 116Z" fill="white"/>
<path d="M132.823 78.8232L152.823 58.8232" stroke="#2563EB" stroke-width="0.8"/>
<path d="M132.823 63.8232L152.823 43.8232" stroke="#2563EB" stroke-width="0.4"/>
<line x1="131" y1="82.5" x2="152" y2="82.5" stroke="#2563EB"/>
<line x1="130.5" y1="40" x2="130.5" y2="61" stroke="#2563EB"/>
<path d="M160.765 78.5841C160.247 78.4849 157.972 78.9436 155.305 79.404C153.951 79.4091 153.073 79.3614 151.913 79.4149C150.969 79.4331 149.3 79.4331 147.582 79.4331" stroke="#2563EB" stroke-width="2" stroke-linecap="round"/>
<path d="M141.387 78.8943C141.495 78.7742 141.895 78.4532 142.593 78.0255C142.964 77.7981 143.439 77.6743 143.741 77.5575C144.185 77.386 144.419 77.2143 144.588 77.0502C144.858 76.7902 144.873 76.3966 144.968 75.9357C145.046 75.5568 145.115 75.2115 145.135 74.8985C145.147 74.7076 145.142 74.4505 144.768 74.7569C144.394 75.0633 143.645 75.9407 143.084 76.5349C142.524 77.1291 142.173 77.4136 141.762 77.7854C141.351 78.1571 140.89 78.6076 140.583 78.8842C140.154 79.2704 139.902 79.4189 139.691 79.5805C139.438 79.7741 139.103 79.92 138.755 80.0586C138.078 80.3286 137.538 80.3611 137.148 80.4535C137.073 80.4712 137.028 80.477 136.989 80.4509C136.798 80.3227 136.713 79.8847 136.541 79.6808C136.495 79.6253 136.385 79.6304 136.091 79.6595C135.422 79.7257 134.917 79.8857 134.799 79.9152C134.71 79.9376 134.794 80.0975 134.827 80.1643C134.908 80.327 135.084 80.4541 135.196 80.7551C135.223 80.8296 135.196 80.9 135.195 80.9609C135.195 81.0218 135.205 81.0752 135.606 81.1027C136.006 81.1302 136.797 81.1302 137.289 81.1135C137.952 81.0908 138.402 81.0285 138.865 81.0223C139.291 81.0166 139.554 80.9019 139.883 80.8266C140.284 80.7349 140.737 80.6956 141.156 80.6403C141.352 80.6145 141.766 80.5731 142.253 80.5394C142.431 80.5271 142.463 80.4838 142.821 80.4455C143.179 80.4072 143.861 80.3647 144.235 80.3479C144.825 80.3214 145.18 80.4199 145.335 80.4924C145.394 80.5199 145.387 80.5728 145.381 80.6165C145.351 80.8412 145.097 81.0285 144.94 81.1401C144.666 81.3356 144.024 81.1614 143.65 81.2347C143.372 81.2892 142.789 81.2523 142.444 81.2461C141.693 81.2327 141.2 81.1707 140.844 81.0868C140.667 81.0451 140.266 81.0809 139.912 81.1143C139.616 81.142 139.169 81.17 138.968 81.1924C138.884 81.2018 138.823 81.2594 138.777 81.2923C138.757 81.3071 138.773 81.3466 139.321 81.364C139.869 81.3813 140.956 81.3826 141.671 81.3449C142.386 81.3073 142.697 81.2306 142.941 81.153C143.36 81.02 143.678 80.8297 143.972 80.6705C144.227 80.5329 144.463 80.4608 144.722 80.3465C145.402 80.0462 145.727 80.038 146.12 79.8748C146.433 79.7444 146.7 79.443 146.734 79.3709C146.747 79.344 146.658 79.3325 145.77 79.3272C144.882 79.3218 143.173 79.3218 142.315 79.2939C141.457 79.2661 141.502 79.2104 141.816 79.1148C142.13 79.0191 142.712 78.8853 143.266 78.728C143.82 78.5706 144.328 78.3939 144.753 78.2717C145.496 78.0581 145.899 77.9935 145.883 77.9256C145.864 77.8432 145.595 77.8425 144.987 77.9257C144.379 78.0089 143.382 78.2218 142.174 78.5251C140.966 78.8285 139.576 79.2158 138.893 79.3858C138.211 79.5559 138.278 79.4969 138.519 79.353C138.759 79.2091 139.17 78.9821 139.609 78.7899C140.048 78.5976 140.502 78.447 140.863 78.2823C141.224 78.1176 141.479 77.9434 141.735 77.818C142.224 77.5792 142.603 77.4761 142.775 77.3392C142.85 77.2799 142.878 77.2183 142.864 77.1896C142.825 77.1147 142.611 77.2534 142.278 77.4792C141.744 77.8412 141.226 78.0042 140.947 78.1211C140.616 78.2592 140.382 78.4332 140.229 78.5039C140.099 78.5641 139.763 78.7136 139.294 78.8811C138.855 79.038 138.441 79.0657 138.036 79.1865C137.741 79.2741 137.242 79.3931 136.699 79.5989C136.104 79.824 135.793 79.8949 135.469 79.9341C135.086 79.9803 134.799 79.9178 134.736 79.8406C134.545 79.6087 134.881 79.3404 135.031 79.1789C135.139 79.0637 135.215 78.9055 135.255 78.7171C135.292 78.544 135.261 78.3257 135.217 78.1685C135.187 78.0641 135.173 77.9692 135.162 77.9047C135.14 77.7666 135.361 77.6385 135.506 77.3767C135.677 77.0677 135.863 76.8799 135.975 76.79C136.084 76.7023 136.153 76.5558 136.287 76.4386C136.409 76.3317 136.499 76.1547 136.65 76.0089C136.768 75.894 136.957 75.8306 137.168 75.7078C137.478 75.5283 137.647 75.3508 137.792 75.2783C137.959 75.1952 138.281 74.84 138.54 74.6199C138.738 74.4515 138.953 74.2909 139.07 74.1624C139.172 74.0516 139.31 73.8564 139.466 73.727C139.569 73.6421 139.645 73.5209 139.79 73.3868C139.929 73.2581 140.058 73.1192 140.281 72.9242C140.456 72.7707 140.571 72.6404 140.705 72.5732C140.861 72.4951 140.972 72.3946 141.079 72.2943C141.221 72.1597 141.419 71.9821 141.542 71.8425C141.691 71.6731 141.944 71.6123 142.108 71.5125C142.221 71.4439 142.356 71.5474 142.429 71.5198C142.651 71.4363 142.725 71.2133 142.832 71.0847C142.945 70.9481 143.194 71.0228 143.311 71.0119C143.521 70.9923 143.573 70.6448 143.697 70.471C143.804 70.3202 143.853 70.1754 144.009 69.9802C144.127 69.8315 144.176 69.629 144.349 69.3555C144.466 69.1703 144.6 69.0592 144.673 68.9087C144.759 68.7307 144.812 68.4351 144.941 68.2562C145.169 67.9382 145.214 67.6992 145.232 67.6091C145.302 67.2586 144.905 68.1113 144.748 68.269C144.619 68.399 144.526 68.5893 144.383 68.7714C144.124 69.0998 143.97 69.2347 143.752 69.3911C143.347 69.6822 143.119 69.8161 142.628 70.1785C142.375 70.3655 142.248 70.5091 142.08 70.6369C141.9 70.7743 141.79 70.9102 141.584 71.1172C140.985 71.7165 140.916 71.9876 140.658 72.3832C140.476 72.663 140.38 72.9107 140.123 73.2863C139.562 74.1067 139.511 74.4097 139.404 74.6556C139.383 74.7035 139.381 74.7398 139.396 74.7568C139.433 74.8005 139.857 74.579 140.636 74.1108C141.06 73.8558 141.496 73.4917 141.892 73.2208C142.288 72.9499 142.618 72.7644 142.873 72.5918C143.128 72.4193 143.299 72.2653 143.55 72.0651C143.801 71.8649 144.128 71.6232 144.406 71.3254C144.683 71.0275 144.901 70.6809 145.001 70.5605C145.1 70.4401 145.075 70.5564 144.941 70.8976C144.807 71.2389 144.565 71.8016 143.776 72.9613C142.987 74.121 141.659 75.8607 140.943 76.7812C140.228 77.7018 140.166 77.7506 140.077 77.7823C139.988 77.8139 139.875 77.8271 139.936 77.6803C139.997 77.5335 140.237 77.2264 141.41 76.1992C142.583 75.172 144.683 73.4339 145.795 72.5308C146.908 71.6277 146.97 71.6123 146.984 71.6513C146.998 71.6902 146.963 71.784 146.828 72.0013C146.693 72.2185 146.459 72.5564 145.786 73.2939C145.113 74.0315 144.009 75.1584 142.918 76.1649C141.826 77.1715 140.783 78.0235 140.25 78.4462C139.718 78.8689 139.729 78.8364 140.542 78.0019C141.355 77.1674 142.969 75.5317 143.991 74.431C145.013 73.3303 145.394 72.814 145.609 72.5111C145.863 72.134 145.913 72.0025 145.93 71.8856C145.935 71.824 145.935 71.7577 145.935 71.6894" stroke="#2563EB" stroke-width="2" stroke-linecap="round"/>
<path d="M138.354 78.8837C138.418 78.7769 138.625 78.5717 139.015 78.0712C139.139 77.9122 139.241 77.7058 139.525 77.3257C139.809 76.9457 140.259 76.3886 140.502 76.01C140.744 75.6314 140.766 75.4482 140.756 75.3817C140.748 75.3284 140.59 75.5535 140.353 75.8989C140.196 76.1273 139.922 76.4324 139.548 76.7493C139.175 77.0662 138.7 77.3776 138.4 77.5657C137.823 77.9271 137.62 77.9609 137.575 77.962C137.552 77.9625 137.576 77.8761 137.749 77.5908C137.921 77.3055 138.254 76.8017 138.568 76.3758C139.141 75.5977 139.519 75.1806 139.543 75.1569C139.789 74.9108 139.077 75.8726 138.758 76.2059C138.457 76.5215 138.248 76.8599 137.988 77.2116C137.631 77.6955 137.255 78.0231 137.138 78.2404C136.966 78.5603 136.433 78.7793 136.065 78.8567C135.97 78.8767 136.208 78.5502 136.644 78.1665C136.936 77.9096 137.394 77.5537 138.278 77.0241C139.162 76.4945 140.464 75.8089 141.221 75.389C142.169 74.8636 142.388 74.6757 142.534 74.603C142.624 74.5526 142.746 74.4749 142.865 74.4349C142.984 74.3949 143.096 74.3949 143.245 74.3609" stroke="#2563EB" stroke-width="2" stroke-linecap="round"/>
<path d="M135.086 45.8834C135.072 46.0094 135.046 46.2213 134.91 46.5153C134.86 46.5805 134.804 46.6226 134.768 46.6653C134.732 46.7081 134.718 46.7501 134.704 46.7935" stroke="#2563EB" stroke-width="2" stroke-linecap="round"/>
<path d="M134.665 46.832C134.637 47.0432 134.524 47.2413 134.425 47.3795C134.41 47.3621 134.41 47.2695 134.417 47.1996C134.425 47.1297 134.44 47.0854 134.455 47.0397" stroke="#2563EB" stroke-width="2" stroke-linecap="round"/>
<path d="M134.588 45.2307C134.536 45.2565 134.495 45.3528 134.434 45.5738C134.34 45.9132 134.125 46.5077 133.9 47.3179C133.542 48.6037 133.363 48.8881 133.26 49.3239C133.17 49.7058 133.026 49.9907 132.954 50.1594C132.865 50.3674 132.77 50.9933 132.584 51.8047C132.415 52.5406 132.38 52.9423 132.31 53.41C132.191 54.1967 132.253 54.7122 132.288 55.1313C132.322 55.5279 132.281 55.8424 132.22 55.9262C132.188 55.9708 132.094 55.9567 132.032 55.9364C131.824 55.8685 131.758 55.591 131.637 55.2865C131.536 55.0316 131.474 54.7733 131.425 54.4098C131.294 53.4425 131.432 53.2072 131.453 53.0232C131.491 52.6841 131.587 52.2626 131.658 52.0287C131.717 51.8319 131.699 51.6022 131.727 51.3071C131.761 50.9472 131.882 50.641 131.933 50.414C131.986 50.1762 132.08 49.6951 132.173 49.3601C132.221 49.1878 132.223 48.5371 132.188 47.9181C132.159 47.4207 132.194 47.0324 132.216 46.7648C132.288 45.8591 132.208 45.602 132.216 45.4029C132.224 45.1892 132.167 44.9579 132.131 44.842C132.115 44.7896 132.077 44.7603 132.047 44.7968C131.834 45.0527 131.987 45.3727 131.931 45.684C131.846 46.1591 131.945 46.4193 131.924 46.6952C131.889 47.1549 132.001 47.4678 132.079 47.7156C132.15 47.9441 132.185 48.1479 132.179 48.4295C132.17 48.8256 132.186 49.01 132.164 49.3246C132.139 49.6813 132.055 49.8985 131.991 50.1736C131.953 50.3389 131.927 50.4788 131.915 50.5632C131.909 50.6015 131.822 50.5905 131.766 50.5689C131.556 50.4872 131.512 50.2228 131.456 50.0251C131.381 49.7623 131.399 49.5324 131.462 49.3626C131.548 49.1346 131.625 48.2566 131.59 47.7145C131.565 47.3333 131.824 46.9361 132.073 46.5111C132.296 46.1297 132.492 45.8289 132.606 45.6298C132.736 45.402 132.977 45.1872 133.206 45.0992C133.72 44.9025 134.586 45.0925 135.105 45.1217C135.235 45.1358 135.347 45.1638 135.433 45.1923C135.519 45.2208 135.575 45.2488 135.632 45.2777" stroke="#2563EB" stroke-width="2" stroke-linecap="round"/>
<path d="M137.165 45.4687C137.138 45.5474 137.055 45.7726 136.746 46.2232C136.139 47.1059 135.944 47.6456 135.831 47.924C135.785 48.0351 135.685 48.4201 135.527 49.1001C135.243 50.3201 135.065 50.6847 134.98 51.1401C134.928 51.4233 134.796 51.6646 134.64 51.9353C134.45 52.2626 134.199 52.9282 134.043 53.3851C133.838 53.9846 133.465 54.4327 133.046 55.1259C132.503 56.0239 132.392 56.2754 132.378 56.3314C132.37 56.3586 132.39 56.1601 132.506 55.7822C132.622 55.4042 132.841 54.7957 133.05 53.5802C133.259 52.3647 133.452 50.5608 133.551 49.2208C133.65 47.8808 133.65 47.0593 133.658 46.5612C133.674 45.6092 133.667 45.0861 133.679 44.7702C133.687 44.5658 133.867 45.3225 133.943 46.2965C134.004 47.0672 134.023 48.4049 134.019 49.3211C134.014 50.2374 133.963 50.6931 133.925 51.3457C133.887 51.9983 133.863 52.8338 133.717 53.3899C133.488 54.2665 133.032 54.7278 133.039 55.1136C133.041 55.2279 133.06 55.1761 133.898 53.8072C134.736 52.4383 136.397 49.7537 137.404 48.2107C138.412 46.6676 138.714 46.3475 138.892 46.1388C139.132 45.857 139.174 45.6981 139.155 45.6095C139.145 45.5622 139.038 45.562 138.974 45.5693C138.862 45.582 138.792 45.7746 138.271 47.0055C137.806 48.1059 136.836 50.13 136.288 51.4238C135.74 52.7176 135.62 53.2091 135.525 53.5205C135.325 54.1753 135.001 54.6589 134.721 55.2959C134.308 56.2305 134.055 56.3984 133.925 56.5071C133.921 56.5107 133.963 56.4623 134.069 56.2224C134.175 55.9825 134.346 55.5433 135.48 53.7979C136.613 52.0525 138.704 49.0143 139.817 47.4125C140.931 45.8108 141.004 45.7377 140.993 45.8106C140.982 45.8836 140.886 46.1049 140.06 47.3406C139.234 48.5763 137.682 50.8197 136.811 52.119C135.94 53.4182 135.797 53.7053 135.693 53.8974C135.54 54.1827 135.44 54.3556 135.277 54.6762C134.952 55.3139 134.547 55.8443 134.349 56.1274C134.121 56.4529 133.829 56.8074 133.548 57.2042C133.352 57.4819 133.188 57.715 133.026 57.9128C132.864 58.1109 132.778 58.2811 132.693 58.4084C132.654 58.4678 132.608 58.5076 132.652 58.4283C132.695 58.3489 132.826 58.1468 134.249 56.4817C135.673 54.8165 138.385 51.6943 139.844 49.9509C141.302 48.2074 141.424 47.9374 141.536 47.7278C141.729 47.3671 141.876 47.1759 141.904 47.154C142.254 46.8787 141.441 48.1692 141.055 48.8642C140.62 49.648 140.418 50.3034 140.228 50.6395C139.881 51.2515 139.482 51.816 139.293 52.29C139.08 52.8262 138.76 53.1567 138.526 53.4567C138.229 53.8363 137.639 53.9568 137.49 54.1268C137.268 54.3795 137.129 54.5786 136.994 54.7419C136.828 54.9425 136.647 55.2723 136.306 55.5711C135.986 55.8521 135.796 56.11 135.524 56.3185C135.312 56.4813 135.169 56.7654 134.978 56.9503C134.693 57.2256 134.447 57.5169 134.201 57.8133C134.033 58.0164 133.916 58.2046 133.764 58.3718C133.615 58.5349 133.537 58.711 133.459 58.9518C133.39 59.1662 133.268 59.3066 133.248 59.3702C133.141 59.7109 134.279 58.8188 134.801 58.3911C135.114 58.1343 135.556 57.8345 135.986 57.3939C136.416 56.9533 136.829 56.3908 137.081 56.0618C137.532 55.4728 137.812 55.0229 138.034 54.6915C138.312 54.2772 138.61 53.9367 138.817 53.6014C139.138 53.0822 139.322 52.9121 139.463 52.7279C139.699 52.4202 139.82 52.0153 140.032 51.803C140.391 51.4437 140.556 51.1652 140.712 50.995C140.911 50.8247 141.024 50.6551 141.236 50.3368C141.293 50.2581 141.336 50.202 141.379 50.1442" stroke="#2563EB" stroke-width="2" stroke-linecap="round"/>
<path d="M141.604 52.5203C141.658 52.4333 141.691 52.36 141.696 52.2571C141.703 52.1447 141.668 52.0344 141.674 51.9619C141.676 51.9315 141.69 51.9157 141.706 51.9073C141.78 51.8696 141.897 51.8502 142.028 51.8435C142.051 51.8424 142.049 51.8735 142.044 51.8974C142.015 52.0332 141.924 52.1671 141.921 52.3216C141.919 52.4214 141.967 52.6158 142.024 52.7208C142.064 52.7964 142.173 52.6519 142.239 52.6136C142.256 52.6036 142.271 52.5865 142.289 52.5794C142.306 52.5723 142.325 52.5747 142.334 52.5955C142.36 52.6505 142.334 52.7186 142.305 52.7686C142.288 52.7972 142.256 52.8248 142.231 52.8348C142.205 52.8448 142.185 52.8346 142.196 52.8131C142.269 52.6717 142.387 52.661 142.422 52.596C142.45 52.5441 142.52 52.544 142.535 52.552C142.577 52.5744 142.485 52.6454 142.447 52.67C142.348 52.7334 142.212 52.7274 142.155 52.7708C142.098 52.8135 142.027 52.8579 141.953 52.9424C141.886 53.0193 141.831 53.0817 141.768 53.1415C141.692 53.2133 141.656 53.3376 141.577 53.4143C141.515 53.4745 141.46 53.5778 141.389 53.6374C141.32 53.6949 141.25 53.7593 141.255 53.7696C141.332 53.9246 141.508 53.6233 141.567 53.5086C141.631 53.3823 141.733 53.3125 141.823 53.255C141.846 53.2401 141.873 53.2208 141.87 53.2342C141.831 53.404 141.654 53.4804 141.549 53.5384C141.526 53.551 141.511 53.5683 141.494 53.5821C141.463 53.6082 141.233 53.5377 140.861 53.4095C140.604 53.3213 140.458 53.3326 140.399 53.3407C140.299 53.3541 140.262 53.4524 140.218 53.5231C140.117 53.6877 139.95 53.8126 139.846 53.9612C139.777 54.0588 139.764 54.1927 139.767 54.2967C139.77 54.3839 139.683 54.4439 139.65 54.5496C139.626 54.629 139.596 54.6934 139.598 54.7182C139.611 54.859 139.943 54.6232 140.208 54.4533C140.408 54.3251 140.485 54.2613 140.577 54.2256C140.622 54.2086 140.758 54.1681 140.922 54.1338C140.97 54.1238 140.949 54.1416 140.918 54.1492C140.848 54.1659 140.777 54.1627 140.722 54.1773C140.622 54.2039 140.56 54.3111 140.446 54.4118C140.325 54.5178 140.168 54.6134 140.084 54.6816C139.971 54.7731 139.896 54.8734 139.883 54.9124C139.878 54.9257 139.903 54.9286 139.927 54.9215C140.039 54.8875 140.131 54.8051 140.221 54.7639C140.318 54.7196 140.382 54.6631 140.448 54.6303C140.485 54.6115 140.511 54.5764 140.544 54.5552C140.561 54.5436 140.583 54.5336 140.544 54.5567C140.28 54.7115 140.23 54.8046 140.143 54.8702C140.065 54.929 139.946 55.0009 139.859 55.0638C139.723 55.1618 139.655 55.2265 139.572 55.2802C139.5 55.3264 139.39 55.4104 139.258 55.5579C139.216 55.6042 139.185 55.679 139.186 55.7071C139.192 55.8292 139.413 55.61 139.46 55.5583C139.542 55.467 139.713 55.4519 139.779 55.4218C139.812 55.4029 139.844 55.3759 139.856 55.3517C139.852 55.3434 139.827 55.3431 139.802 55.3427" stroke="#2563EB" stroke-width="2" stroke-linecap="round"/>
<path d="M138.806 56.2286C138.791 56.2691 138.716 56.3432 138.606 56.4769C138.345 56.7971 138.324 56.9538 138.2 57.1601C138.097 57.3309 137.947 57.3854 137.839 57.4457C137.766 57.4865 137.711 57.5547 137.628 57.6128C137.489 57.7106 137.311 57.8348 137.229 57.8814C137.131 57.9368 136.984 58.0415 136.847 58.1295C136.781 58.1717 136.689 58.2166 136.439 58.382C136.314 58.4649 136.173 58.727 136.065 58.8731C136.005 58.9551 135.954 59.1098 135.908 59.205C135.844 59.3373 135.732 59.4447 135.637 59.543C135.57 59.6116 135.503 59.6957 135.416 59.7694C135.35 59.8254 135.292 59.877 135.257 59.8972C135.178 59.9429 135.16 60.0793 135.025 60.2166C134.961 60.2821 134.88 60.3193 134.815 60.3715C134.797 60.3864 134.778 60.4055 134.758 60.4203C134.738 60.4351 134.718 60.4449 134.682 60.47" stroke="#2563EB" stroke-width="2" stroke-linecap="round"/>
<path d="M135.962 59.1778C136.006 59.149 136.095 59.1103 136.168 59.0723C136.22 59.0452 136.28 59.0247 136.322 58.9924C136.385 58.9423 136.425 58.8312 136.566 58.7471C136.645 58.7032 136.689 58.6761 136.714 58.6434C136.727 58.627 136.743 58.6108 136.76 58.5941" stroke="#2563EB" stroke-width="2" stroke-linecap="round"/>
<path d="M138.099 56.1003C138.144 56.0757 138.216 56.0662 138.34 56.0742C138.429 56.0799 138.543 56.1294 138.627 56.1524C138.717 56.1772 138.861 56.2366 138.959 56.3043C138.975 56.3173 138.989 56.3266 139.004 56.3368C139.02 56.347 139.036 56.3578 139.053 56.3689" stroke="#2563EB" stroke-width="2" stroke-linecap="round"/>
</svg>
