<svg width="60" height="60" viewBox="0 0 60 60" fill="none" xmlns="http://www.w3.org/2000/svg">
<g clip-path="url(#clip0_143_15)">
<g filter="url(#filter0_d_143_15)">
<mask id="path-1-inside-1_143_15" fill="white">
<path d="M15.3372 38.5476C18.8698 37.7029 22.025 35.7161 24.3134 32.8955C26.6018 30.0748 27.8956 26.5778 27.9939 22.947C28.0923 19.3161 26.9899 15.7542 24.8576 12.8137C22.7253 9.87325 19.6824 7.71853 16.2007 6.68375L14.981 10.7876C17.5593 11.5539 19.8127 13.1495 21.3917 15.327C22.9707 17.5045 23.7871 20.1422 23.7143 22.831C23.6414 25.5198 22.6834 28.1094 20.9887 30.1982C19.2941 32.287 16.9576 33.7582 14.3416 34.3837L15.3372 38.5476Z"/>
</mask>
<path d="M15.3372 38.5476C18.8698 37.7029 22.025 35.7161 24.3134 32.8955C26.6018 30.0748 27.8956 26.5778 27.9939 22.947C28.0923 19.3161 26.9899 15.7542 24.8576 12.8137C22.7253 9.87325 19.6824 7.71853 16.2007 6.68375L14.981 10.7876C17.5593 11.5539 19.8127 13.1495 21.3917 15.327C22.9707 17.5045 23.7871 20.1422 23.7143 22.831C23.6414 25.5198 22.6834 28.1094 20.9887 30.1982C19.2941 32.287 16.9576 33.7582 14.3416 34.3837L15.3372 38.5476Z" stroke="#FFC040" stroke-width="10" shape-rendering="crispEdges" mask="url(#path-1-inside-1_143_15)"/>
</g>
<g filter="url(#filter1_d_143_15)">
<line x1="14" y1="36.5" x2="47" y2="36.5" stroke="#FFC040" stroke-width="5"/>
</g>
<g filter="url(#filter2_d_143_15)">
<line x1="37.5" y1="16" x2="37.5" y2="52" stroke="#FFC040" stroke-width="5"/>
</g>
</g>
<defs>
<filter id="filter0_d_143_15" x="3.34158" y="-4.31628" width="35.6584" height="53.8639" filterUnits="userSpaceOnUse" color-interpolation-filters="sRGB">
<feFlood flood-opacity="0" result="BackgroundImageFix"/>
<feColorMatrix in="SourceAlpha" type="matrix" values="0 0 0 0 0 0 0 0 0 0 0 0 0 0 0 0 0 0 127 0" result="hardAlpha"/>
<feMorphology radius="3" operator="dilate" in="SourceAlpha" result="effect1_dropShadow_143_15"/>
<feOffset/>
<feGaussianBlur stdDeviation="4"/>
<feComposite in2="hardAlpha" operator="out"/>
<feColorMatrix type="matrix" values="0 0 0 0 0.980392 0 0 0 0 0.505882 0 0 0 0 0.184314 0 0 0 0.25 0"/>
<feBlend mode="normal" in2="BackgroundImageFix" result="effect1_dropShadow_143_15"/>
<feBlend mode="normal" in="SourceGraphic" in2="effect1_dropShadow_143_15" result="shape"/>
</filter>
<filter id="filter1_d_143_15" x="6" y="28" width="49" height="21" filterUnits="userSpaceOnUse" color-interpolation-filters="sRGB">
<feFlood flood-opacity="0" result="BackgroundImageFix"/>
<feColorMatrix in="SourceAlpha" type="matrix" values="0 0 0 0 0 0 0 0 0 0 0 0 0 0 0 0 0 0 127 0" result="hardAlpha"/>
<feOffset dy="2"/>
<feGaussianBlur stdDeviation="4"/>
<feComposite in2="hardAlpha" operator="out"/>
<feColorMatrix type="matrix" values="0 0 0 0 0.980392 0 0 0 0 0.505882 0 0 0 0 0.184314 0 0 0 0.25 0"/>
<feBlend mode="normal" in2="BackgroundImageFix" result="effect1_dropShadow_143_15"/>
<feBlend mode="normal" in="SourceGraphic" in2="effect1_dropShadow_143_15" result="shape"/>
</filter>
<filter id="filter2_d_143_15" x="28" y="12" width="21" height="52" filterUnits="userSpaceOnUse" color-interpolation-filters="sRGB">
<feFlood flood-opacity="0" result="BackgroundImageFix"/>
<feColorMatrix in="SourceAlpha" type="matrix" values="0 0 0 0 0 0 0 0 0 0 0 0 0 0 0 0 0 0 127 0" result="hardAlpha"/>
<feOffset dx="1" dy="4"/>
<feGaussianBlur stdDeviation="4"/>
<feComposite in2="hardAlpha" operator="out"/>
<feColorMatrix type="matrix" values="0 0 0 0 0.980392 0 0 0 0 0.505882 0 0 0 0 0.184314 0 0 0 0.25 0"/>
<feBlend mode="normal" in2="BackgroundImageFix" result="effect1_dropShadow_143_15"/>
<feBlend mode="normal" in="SourceGraphic" in2="effect1_dropShadow_143_15" result="shape"/>
</filter>
<clipPath id="clip0_143_15">
<rect width="60" height="60" fill="white"/>
</clipPath>
</defs>
</svg>
